<svg width="1080" height="1080" viewBox="0 0 1080 1080" xmlns="http://www.w3.org/2000/svg"><rect width="1080" height="1080" fill="#2b2d42"/><path d="M 0,1080 C 0,1080 0,135 0,135 C 45.60014727540501,157.32621502209133 91.20029455081001,179.65243004418264 149,166 C 206.79970544919,152.34756995581736 276.79896907216494,102.71649484536081 343,94 C 409.20103092783506,85.28350515463919 471.60382916053027,117.4815905743741 501,118 C 530.3961708394697,118.5184094256259 526.7857142857142,87.35714285714285 574,91 C 621.2142857142858,94.64285714285715 719.2533136966128,133.08983799705447 787,152 C 854.7466863033872,170.91016200294553 892.2010309278348,170.2835051546392 955,161 C 1017.7989690721652,151.7164948453608 1105.9425625920474,133.77614138438884 1131,128 C 1156.0574374079526,122.22385861561118 1118.0287187039762,128.61192930780558 1080,135 C 1080,135 1080,1080 1080,1080 Z" fill="#d80032" opacity="0.075"/><path d="M 0,1080 C 0,1080 0,270 0,270 C 82.53773932253313,243.9322533136966 165.07547864506626,217.8645066273932 211,222 C 256.92452135493374,226.1354933726068 266.235824742268,260.47422680412376 311,266 C 355.764175257732,271.52577319587624 435.98122238586154,248.23858615611186 497,248 C 558.0187776141385,247.76141384388814 599.8392857142857,270.5714285714286 632,293 C 664.1607142857143,315.4285714285714 686.6616347569956,337.47569955817374 729,320 C 771.3383652430044,302.52430044182626 833.5141752577317,245.5257731958763 912,227 C 990.4858247422683,208.4742268041237 1085.2816642120767,228.42120765832107 1116,242 C 1146.7183357879233,255.57879234167893 1113.3591678939615,262.7893961708395 1080,270 C 1080,270 1080,1080 1080,1080 Z" fill="#d80032" opacity="0.15"/><path d="M 0,1080 C 0,1080 0,405 0,405 C 23.824005891016213,419.69403534609717 47.64801178203243,434.3880706921944 106,449 C 164.35198821796757,463.6119293078056 257.23195876288656,478.14175257731966 338,454 C 418.76804123711344,429.85824742268034 487.4241531664213,367.04491899852724 517,357 C 546.5758468335787,346.95508100147276 537.0714285714286,389.67857142857144 579,405 C 620.9285714285714,420.32142857142856 714.2901325478643,408.240795287187 786,414 C 857.7098674521357,419.759204712813 907.7680412371135,443.3582474226804 958,443 C 1008.2319587628865,442.6417525773196 1058.637702503682,418.32621502209133 1079,408 C 1099.362297496318,397.67378497790867 1089.681148748159,401.33689248895433 1080,405 C 1080,405 1080,1080 1080,1080 Z" fill="#d80032" opacity="0.22499999999999998"/><path d="M 0,1080 C 0,1080 0,540 0,540 C 75.69458762886597,561.0544918998527 151.38917525773195,582.1089837997054 195,586 C 238.61082474226805,589.8910162002946 250.13788659793812,576.618556701031 287,568 C 323.8621134020619,559.381443298969 386.0592783505155,555.4167893961708 429,543 C 471.9407216494845,530.5832106038292 495.6250000000001,509.7142857142858 569,520 C 642.3749999999999,530.2857142857142 765.4407216494844,571.7260677466862 817,568 C 868.5592783505156,564.2739322533138 848.6121134020618,515.3814432989691 900,509 C 951.3878865979382,502.6185567010309 1074.110824742268,538.7481590574374 1116,551 C 1157.889175257732,563.2518409425626 1118.944587628866,551.6259204712812 1080,540 C 1080,540 1080,1080 1080,1080 Z" fill="#d80032" opacity="0.3"/><path d="M 0,1080 C 0,1080 0,675 0,675 C 31.56167157584683,679.2680412371134 63.12334315169366,683.5360824742268 118,674 C 172.87665684830634,664.4639175257732 251.06829896907215,641.1237113402062 301,654 C 350.93170103092785,666.8762886597938 372.6034609720177,715.9690721649484 430,718 C 487.3965390279823,720.0309278350516 580.5178571428571,675 625,653 C 669.4821428571429,631 665.3251104565537,632.0309278350516 716,652 C 766.6748895434463,671.9690721649484 872.1817010309278,710.8762886597939 937,715 C 1001.8182989690722,719.1237113402061 1025.948085419735,688.4639175257732 1043,676 C 1060.051914580265,663.5360824742268 1070.0259572901325,669.2680412371134 1080,675 C 1080,675 1080,1080 1080,1080 Z" fill="#d80032" opacity="0.375"/><path d="M 0,1080 C 0,1080 0,810 0,810 C 67.88162739322534,826.149852724595 135.7632547864507,842.29970544919 195,848 C 254.2367452135493,853.70029455081 304.82860824742266,848.9510309278351 341,831 C 377.17139175257734,813.0489690721649 398.92231222385874,781.8961708394698 456,790 C 513.0776877761413,798.1038291605302 605.4821428571427,845.4642857142857 656,859 C 706.5178571428573,872.5357142857143 715.14911634757,852.2466863033873 766,848 C 816.85088365243,843.7533136966127 909.921391752577,855.5489690721649 959,856 C 1008.078608247423,856.4510309278351 1013.1653166421208,845.5574374079529 1026,836 C 1038.8346833578792,826.4425625920471 1059.4173416789395,818.2212812960236 1080,810 C 1080,810 1080,1080 1080,1080 Z" fill="#d80032" opacity="0.44999999999999996"/><path d="M 0,1080 C 0,1080 0,945 0,945 C 84.19440353460972,950.6737849779088 168.38880706921944,956.3475699558174 207,946 C 245.61119293078056,935.6524300441826 238.63917525773195,909.2835051546392 278,904 C 317.36082474226805,898.7164948453608 403.0544918998528,914.5184094256259 467,921 C 530.9455081001472,927.4815905743741 573.1428571428571,924.6428571428573 635,932 C 696.8571428571429,939.3571428571427 778.3740795287188,956.9101620029453 828,964 C 877.6259204712812,971.0898379970547 895.3608247422678,967.7164948453609 936,951 C 976.6391752577322,934.2835051546391 1040.1826215022093,904.2238586156111 1068,901 C 1095.8173784977907,897.7761413843889 1087.9086892488954,921.3880706921944 1080,945 C 1080,945 1080,1080 1080,1080 Z" fill="#d80032" opacity="0.525"/></svg>